<svg width="28" height="17" viewBox="0 0 28 17" fill="none" xmlns="http://www.w3.org/2000/svg">
<path d="M19.1059 0.83777C18.7611 0.885158 18.4766 1.13768 18.3815 1.48031C18.2868 1.82325 18.3998 2.19081 18.6694 2.41625L23.0908 6.43855C23.2645 6.59599 23.4923 6.67642 23.7238 6.66208C23.9556 6.64774 24.1722 6.53955 24.326 6.36185C24.4799 6.18415 24.5582 5.95096 24.5441 5.71402C24.5301 5.47676 24.4244 5.25511 24.2508 5.09766L19.8431 1.07537C19.6902 0.930398 19.4916 0.846222 19.2835 0.837802C19.2244 0.831879 19.165 0.831847 19.1059 0.83777ZM0.833483 8.00293C0.601974 8.01384 0.383878 8.1189 0.227917 8.29411C0.0716514 8.46963 -0.00998671 8.70158 0.000977371 8.93852C0.0116389 9.17577 0.114291 9.39867 0.285786 9.55861C0.457281 9.71823 0.683613 9.80178 0.915418 9.79055H24.811L18.6701 15.3773C18.3082 15.709 18.2777 16.278 18.6018 16.6484C18.9259 17.0188 19.4818 17.0499 19.8437 16.7182L27.7042 9.567C27.978 9.32008 28.0728 8.92508 27.9418 8.57623C27.8111 8.22768 27.4824 7.99916 27.1175 8.0029H0.916034C0.888619 8.00166 0.861508 8.00166 0.834091 8.0029L0.833483 8.00293Z" fill="black"/>
</svg>
